<svg xmlns="http://www.w3.org/2000/svg"  viewBox="0 0 64 64" width="64px" height="64px"><path fill="#7bbeeb" d="M23.237,45.441c-0.37,0-0.721-0.206-0.895-0.553l-1.272-2.544c-0.155-0.31-0.138-0.678,0.044-0.973 s0.504-0.475,0.851-0.475h8.192c0.47,0,0.876,0.327,0.977,0.786c0.101,0.459-0.131,0.926-0.558,1.122l-1.231,0.567l-2.065,0.815 l-3.735,1.205C23.442,45.426,23.339,45.441,23.237,45.441z"/><path fill="#8d6c9f" d="M30.157,41.897l-1.231,0.568l-2.013,0.793l-3.675,1.183l-1.272-2.544H30.157 M30.157,39.897h-8.192 c-0.693,0-1.337,0.359-1.701,0.949c-0.364,0.59-0.398,1.326-0.088,1.946l1.272,2.544c0.346,0.693,1.049,1.106,1.789,1.106 c0.204,0,0.41-0.031,0.613-0.097l3.675-1.183c0.04-0.013,0.08-0.027,0.12-0.043l2.013-0.793c0.035-0.014,0.07-0.029,0.105-0.045 l1.231-0.568c0.853-0.394,1.317-1.328,1.116-2.245C31.909,40.551,31.096,39.897,30.157,39.897L30.157,39.897z"/><path fill="#7bbeeb" d="M40.371,45.445c-0.118,0-0.238-0.021-0.355-0.065l-6.614-2.514 c-0.438-0.166-0.702-0.615-0.634-1.08c0.068-0.464,0.45-0.818,0.917-0.852c0,0,8.315-0.599,8.339-0.599 c0.337,0,0.653,0.17,0.838,0.454c0.199,0.306,0.216,0.694,0.045,1.016l-1.653,3.109C41.076,45.25,40.731,45.445,40.371,45.445z"/><path fill="#8d6c9f" d="M42.025,41.336l-1.654,3.109l-6.614-2.513L42.025,41.336 M42.025,39.336 c-0.048,0-0.096,0.002-0.144,0.005l-8.268,0.595c-0.936,0.067-1.699,0.776-1.835,1.705c-0.136,0.928,0.391,1.827,1.268,2.16 l6.614,2.513c0.233,0.089,0.473,0.131,0.71,0.131c0.721,0,1.41-0.391,1.766-1.061l1.654-3.109c0.342-0.643,0.308-1.42-0.089-2.03 C43.33,39.676,42.698,39.336,42.025,39.336L42.025,39.336z"/><path fill="#ace3ff" d="M31.928,48.296c-0.319,0-0.619-0.152-0.807-0.409c-0.027-0.036-1.342-1.771-3.265-1.771 c-0.108,0-0.217,0.005-0.329,0.017c-0.034,0.003-0.067,0.005-0.1,0.005c-0.347,0-0.672-0.181-0.854-0.48 c-0.549-0.904-1.61-2.511-2.119-2.976c-0.306-0.279-0.408-0.717-0.257-1.103c0.15-0.384,0.52-0.636,0.931-0.636 c0.002,0,13.269,0.07,13.269,0.07c0.376,0.002,0.719,0.215,0.888,0.551s0.135,0.738-0.087,1.041 c-0.782,1.064-1.708,2.395-1.84,2.688c-0.166,0.365-0.546,0.63-0.942,0.63c-0.032,0-0.16-0.01-0.244-0.01 c-0.642,0-2.258,0.188-3.408,1.934c-0.181,0.273-0.484,0.441-0.813,0.449C31.943,48.296,31.936,48.296,31.928,48.296z"/><path fill="#8d6c9f" d="M25.129,41.943l13.264,0.07c0,0-1.781,2.425-1.963,2.911c0,0-0.094-0.01-0.258-0.01 c-0.722,0-2.806,0.202-4.243,2.383c0,0-1.581-2.181-4.072-2.181c-0.14,0-0.283,0.007-0.429,0.021 C27.427,45.137,25.933,42.677,25.129,41.943 M25.128,39.943c-0.823,0-1.563,0.505-1.863,1.272 c-0.301,0.771-0.097,1.647,0.514,2.205c0.353,0.323,1.287,1.685,1.938,2.756c0.365,0.601,1.016,0.962,1.709,0.962 c0.066,0,0.133-0.003,0.199-0.01c0.078-0.008,0.155-0.012,0.23-0.012c1.407,0,2.443,1.341,2.453,1.355 c0.377,0.52,0.979,0.826,1.619,0.826c0.015,0,0.03,0,0.045,0c0.656-0.015,1.264-0.351,1.625-0.899 c0.882-1.339,2.093-1.483,2.573-1.483c0.034,0,0.06,0.001,0.074,0.002c0.074,0.008,0.147,0.012,0.22,0.012 c0.791,0,1.489-0.478,1.803-1.218c0.188-0.345,1.037-1.562,1.736-2.513c0.445-0.606,0.512-1.411,0.175-2.082 c-0.338-0.672-1.024-1.097-1.776-1.101l-13.264-0.07C25.136,39.943,25.132,39.943,25.128,39.943L25.128,39.943z"/><path fill="#acb7d0" d="M12.068,40.003c-0.283,0-0.554-0.12-0.743-0.331l-0.229-0.255c-0.208-0.231-0.297-0.547-0.24-0.854 l0.633-3.377l-4.787-4.11c-0.239-0.205-0.367-0.511-0.347-0.825c0.013-0.194,0.082-0.378,0.195-0.53 c-0.282-0.134-0.582-0.314-0.902-0.544c-2.13-1.527-3.45-4.744-3.504-4.881c-0.137-0.339-0.079-0.726,0.153-1.009 c0.192-0.234,0.478-0.366,0.774-0.366c0.062,0,0.123,0.006,0.185,0.018l1.4,0.264c-0.955-1.239-1.84-2.551-2.111-2.958 c-0.421-0.578-1.125-2.883-1.505-4.203c-0.123-0.427,0.051-0.884,0.426-1.121c0.164-0.104,0.35-0.155,0.535-0.155 c0.238,0,0.474,0.085,0.662,0.25l0.867,0.765l3.23,3.324l3.23,0.889c-0.16-0.887-0.135-1.862-0.117-2.237 c0.021-0.428,0.313-0.795,0.724-0.913c0.091-0.025,0.184-0.038,0.275-0.038c0.322,0,0.632,0.156,0.822,0.431 c0.913,1.319,2.797,2.164,4.245,2.619l-0.071-0.122c-0.184-0.317-0.179-0.71,0.013-1.022c0.182-0.298,0.506-0.479,0.853-0.479 c0.017,0,1.64,0.083,1.64,0.083c0.071-0.016,0.146-0.024,0.221-0.024c0.196,0,0.342,0.056,0.484,0.109 c0.073,0.028,0.141,0.063,0.203,0.105l0.118,0.052c0.718,0.309,1.588,1.375,2.125,2.11l1.508-0.034 c0.135-0.358,0.569-0.957,1.976-2.323c0.19-0.185,0.442-0.282,0.697-0.282c0.131,0,0.264,0.025,0.39,0.079 c0.37,0.156,0.61,0.52,0.61,0.921v0.204c0.013,0.111,0.141,0.867,0.29,1.717l0.44-0.02l2.689-3.547 c0.033-0.044,0.07-0.085,0.11-0.122c0.502-0.475,1.006-0.574,1.341-0.574c0.446,0,0.878,0.166,1.283,0.493 c0.045,0.037,0.087,0.077,0.125,0.12l3.161,3.619c0.062,0.071,0.112,0.149,0.152,0.233l0.486,0.021l0.178-0.868 c0.021-0.102,0.057-0.197,0.105-0.284c0.031-0.213,0.065-0.642,0.078-1.027c0.014-0.405,0.271-0.762,0.651-0.903 c0.114-0.042,0.232-0.063,0.349-0.063c0.273,0,0.541,0.112,0.734,0.32l1.274,1.377c0.113,0.123,0.194,0.271,0.235,0.433l0.17,0.67 l1.426,0.04l0.461-0.738c0.555-0.972,2.002-1.46,2.287-1.548c0.096-0.029,0.195-0.044,0.294-0.044c0.023,0,0.23,0.011,0.305,0.011 c0.756,0,1.069-0.271,1.082-0.281c0.191-0.208,0.448-0.313,0.709-0.313c0.199,0,0.401,0.061,0.578,0.184 c0.41,0.283,0.533,0.841,0.311,1.286c-0.093,0.187-0.2,0.37-0.302,0.536c1.528-0.735,3.259-1.843,4.374-2.657 c0.174-0.127,0.381-0.192,0.59-0.192c0.144,0,0.288,0.031,0.422,0.094c0.33,0.153,0.551,0.475,0.575,0.838 c0.058,0.841-0.07,1.592-0.273,2.227c1.313-0.156,2.809-0.886,3.402-1.224c1.388-1.368,4.426-3.933,4.558-4.044 c0.185-0.155,0.414-0.235,0.645-0.235c0.181,0,0.362,0.049,0.523,0.147c0.368,0.226,0.549,0.662,0.451,1.082 c-0.553,2.35-2.769,5.493-4.344,7.512c0.632-0.156,1.178-0.327,1.457-0.426c0.109-0.039,0.222-0.058,0.333-0.058 c0.246,0,0.488,0.091,0.676,0.263c0.272,0.25,0.385,0.63,0.292,0.988c-0.735,2.837-2.921,4.592-3.333,4.901 c-0.211,0.196-0.438,0.361-0.677,0.493l0.075,0.056c0.241,0.183,0.387,0.464,0.397,0.766c0.01,0.303-0.117,0.593-0.346,0.79 l-4.865,4.199c0.377,1.119,0.259,1.805,0.068,2.201c-0.346,1.538-2.29,2.177-2.521,2.248c-0.095,0.029-0.193,0.044-0.292,0.044 C49.894,39.972,12.068,40.003,12.068,40.003z"/><path fill="#8d6c9f" d="M62,15.764c-0.816,3.466-5.76,9.074-5.76,9.074c0.05,0.001,0.1,0.002,0.15,0.002 c1.721,0,4.03-0.818,4.03-0.818c-0.714,2.753-3.008,4.384-3.008,4.384c-0.496,0.479-1.029,0.648-1.535,0.648 c-0.69,0-1.329-0.315-1.755-0.59l-0.533-0.402c0,0,0.203,0.189,0.533,0.402l2.729,2.057l-5.404,4.664 c0.765,1.682,0.306,2.141,0.306,2.141c-0.115,1.109-1.861,1.644-1.861,1.644l-37.825,0.031l-0.229-0.255l0.739-3.945l-5.225-4.486 l2.855-1.86L9.24,28.609l-1.435,0.385c-0.046,0.009-0.093,0.013-0.142,0.013c-0.499,0-1.149-0.44-1.433-0.643 c-1.919-1.375-3.16-4.444-3.16-4.444l4.333,0.816c-1.172-0.765-4.027-5.047-4.027-5.047C2.969,19.129,2,15.764,2,15.764 l0.867,0.765l3.364,3.466l4.631,1.274l0.977,0.51l-0.561-1.07c-0.51-0.816-0.408-2.906-0.408-2.906 c1.835,2.651,6.423,3.415,6.423,3.415l0.229,0.663l1.147,0.357l-0.408-1.071c-0.051-0.204-0.969-0.969-0.969-0.969l-0.561-0.969 l1.94,0.099c0.062,0.028,0.166,0.074,0.332,0.145c0.714,0.306,2.01,2.202,2.01,2.202l2.243-0.051v1.776l0.663-1.011l-0.255-0.714 l0.306-0.663c0-0.306,1.733-1.988,1.733-1.988s0,0,0,0.204c0,0.204,0.459,2.753,0.459,2.753l1.784-0.076l2.973-3.921 c0.215-0.203,0.433-0.301,0.654-0.301c0.216,0,0.434,0.093,0.655,0.272l3.161,3.619v0.535l2.277,0.102l0.043-0.591l0.229-1.116 c0.153,0,0.204-1.478,0.204-1.478l1.274,1.376l0.357,1.402l2.753,0.076l0.765-1.223c0.408-0.714,1.733-1.121,1.733-1.121 c0.106,0.007,0.207,0.011,0.304,0.011c1.259,0,1.786-0.571,1.786-0.571c-0.255,0.51-0.637,1.02-0.637,1.02 c-0.331,0.204-1.096,0.867-1.096,0.867c-0.204,0.663-0.357,0.867-0.357,0.867c0.075,0.008,0.152,0.012,0.233,0.012 c2.445,0,7.414-3.631,7.414-3.631c0.153,2.243-1.274,3.721-1.274,3.721c0.765-0.153,2.039-0.561,2.039-0.561 c1.937-0.204,3.976-1.427,3.976-1.427C58.737,18.517,62,15.764,62,15.764 M18.593,19.289c0.013,0,0.127,0.044,0.127,0.044 l-0.048-0.002C18.605,19.299,18.587,19.289,18.593,19.289 M2,13.764c-0.369,0-0.74,0.102-1.069,0.31 c-0.751,0.475-1.099,1.389-0.853,2.243c1.01,3.509,1.479,4.264,1.654,4.512c0.208,0.312,0.482,0.716,0.797,1.166 c-0.388,0.109-0.742,0.335-1.007,0.658c-0.463,0.566-0.581,1.339-0.307,2.017c0.149,0.369,1.526,3.654,3.849,5.319 c0.098,0.07,0.195,0.137,0.291,0.2c-0.04,0.627,0.216,1.236,0.693,1.645l4.35,3.734l-0.527,2.81 c-0.115,0.612,0.062,1.243,0.479,1.706l0.229,0.255c0.379,0.421,0.92,0.662,1.487,0.662c0.001,0,0.001,0,0.002,0l37.825-0.031 c0.198,0,0.395-0.03,0.585-0.088c0.465-0.143,2.659-0.912,3.174-2.855c0.223-0.503,0.341-1.219,0.121-2.208l4.384-3.785 c0.458-0.395,0.712-0.976,0.692-1.58c-0.006-0.191-0.04-0.378-0.098-0.555c0.679-0.528,2.83-2.392,3.603-5.376 c0.186-0.716-0.039-1.476-0.584-1.976c-0.244-0.224-0.534-0.379-0.843-0.46c1.299-1.863,2.59-4.048,3.018-5.866 c0.198-0.84-0.165-1.711-0.901-2.163c-0.323-0.198-0.685-0.295-1.046-0.295c-0.461,0-0.92,0.159-1.29,0.471 c-0.13,0.109-3.058,2.583-4.515,3.998c-0.341,0.186-0.906,0.462-1.528,0.687c0.021-0.303,0.022-0.619-0.001-0.948 c-0.05-0.727-0.491-1.369-1.151-1.676c-0.269-0.125-0.558-0.187-0.845-0.187c-0.417,0-0.831,0.13-1.18,0.384 c-0.781,0.57-1.676,1.154-2.551,1.667c-0.145-0.325-0.378-0.615-0.69-0.83c-0.345-0.238-0.742-0.355-1.136-0.355 c-0.477,0-0.95,0.17-1.323,0.5c-0.053,0.023-0.199,0.072-0.464,0.072c-0.053,0-0.108-0.002-0.166-0.006 c-0.046-0.003-0.092-0.005-0.138-0.005c-0.199,0-0.397,0.03-0.588,0.088c-0.483,0.149-2.102,0.728-2.856,1.998l-0.142,0.228 l-0.099-0.003c-0.087-0.299-0.242-0.574-0.454-0.803l-1.274-1.376c-0.386-0.416-0.921-0.641-1.468-0.641 c-0.234,0-0.47,0.041-0.697,0.125c-0.759,0.282-1.273,0.995-1.302,1.805c-0.005,0.133-0.012,0.279-0.022,0.416l-2.386-2.733 c-0.076-0.087-0.159-0.167-0.248-0.239c-0.732-0.592-1.444-0.717-1.912-0.717c-0.516,0-1.287,0.147-2.029,0.848 c-0.08,0.076-0.153,0.157-0.22,0.245l-1.625,2.143c-0.04-0.761-0.511-1.437-1.218-1.736c-0.251-0.106-0.516-0.158-0.779-0.158 c-0.51,0-1.013,0.195-1.393,0.565c-0.964,0.936-1.536,1.568-1.873,2.053l-0.422,0.01c-0.82-1.058-1.566-1.735-2.224-2.017 c-0.014-0.006-0.027-0.011-0.039-0.017c-0.101-0.061-0.208-0.114-0.322-0.157c-0.182-0.069-0.458-0.174-0.838-0.174 c-0.096,0-0.19,0.007-0.283,0.02l-1.476-0.076c-0.034-0.002-0.069-0.003-0.103-0.003c-0.694,0-1.342,0.361-1.706,0.957 c-0.042,0.069-0.079,0.139-0.112,0.212c-0.952-0.421-1.888-0.996-2.399-1.734c-0.38-0.549-1-0.862-1.644-0.862 c-0.183,0-0.368,0.025-0.55,0.077c-0.824,0.235-1.406,0.97-1.448,1.826c-0.011,0.231-0.02,0.56-0.01,0.939l-1.575-0.434 l-2.985-3.076c-0.036-0.037-0.073-0.073-0.112-0.107l-0.867-0.765C2.948,13.933,2.475,13.764,2,13.764L2,13.764z"/><path fill="#ace3ff" d="M25.64,22.424l4.496-6.013c0.347-0.464,0.878-0.73,1.458-0.73c0.531,0,1.035,0.231,1.381,0.635 l4.622,5.388l-4.668,6.754L25.64,22.424z"/><path fill="#8d6c9f" d="M31.593,16.681c0.229,0,0.458,0.095,0.622,0.286l4.119,4.802l-3.609,5.223l-5.715-4.73l3.927-5.251 C31.1,16.791,31.346,16.681,31.593,16.681 M31.594,14.681L31.594,14.681c-0.885,0-1.729,0.423-2.259,1.131l-3.926,5.251 l-1.14,1.525l1.466,1.214l5.715,4.73l1.68,1.391l1.24-1.795l3.609-5.223l0.877-1.269l-1.004-1.171l-4.119-4.802 C33.197,15.039,32.417,14.681,31.594,14.681L31.594,14.681z"/><g><path fill="#8d6c9f" d="M35.178,24.304c0.08-0.559-0.581-0.905-0.581-0.905l-1.309-0.08v1.97h1.186 C35.234,25.103,35.178,24.304,35.178,24.304z"/><path fill="#8d6c9f" d="M35.658,28.071c0-0.706-0.852-1.078-0.852-1.078l-1.518-0.107v2.369h1.651 C35.738,28.936,35.658,28.071,35.658,28.071z"/><path fill="#8d6c9f" d="M56.008,28.767l-2.501-1.593c0.014-0.063,0.024-0.128,0.032-0.193l0.107-0.932 c0.041-0.354-0.015-0.713-0.159-1.039l-0.319-0.719c-0.061-0.138-0.137-0.267-0.225-0.385c0.034-0.1,0.06-0.204,0.078-0.311 l0.133-0.799c0.068-0.405,0.009-0.821-0.169-1.192l-0.293-0.612c-0.333-0.696-1.036-1.137-1.804-1.137 c-0.019,0-0.038,0-0.057,0.001l-4.686,0.133c-0.567,0.016-1.101,0.272-1.468,0.705c-0.064,0.075-0.113,0.158-0.164,0.24 c-0.363-0.524-0.962-0.866-1.639-0.866h-1.837c-0.083,0-0.164,0.015-0.245,0.026c-0.069-0.007-0.137-0.026-0.207-0.026 c-0.017,0-0.033,0-0.05,0.001l-3.195,0.08c-0.32,0.008-0.626,0.098-0.899,0.246c-0.328-0.106-0.657-0.188-0.972-0.229 c-0.087-0.012-0.175-0.017-0.262-0.017h-3.807c-0.698,0-1.311,0.359-1.669,0.902c-0.79-0.481-1.695-0.796-2.676-0.879 c-0.176-0.015-0.351-0.022-0.525-0.022c-0.971,0-1.896,0.235-2.723,0.647c-0.038-0.051-0.069-0.106-0.112-0.153 c-0.379-0.417-0.916-0.654-1.479-0.654h-2.609c-0.746,0-1.43,0.415-1.774,1.077l-0.191,0.367c-0.245-0.85-1.025-1.445-1.921-1.445 h-2.662c-0.945,0-1.762,0.662-1.957,1.587l-1.272,6.028l-1.837,1.251c-0.726,0.494-1.044,1.403-0.786,2.242 c0.258,0.839,1.034,1.411,1.911,1.411h0.62c0.008,0.007,0.012,0.016,0.019,0.022l0.667,0.573L9.51,38.678 c-0.097,0.596,0.08,1.205,0.483,1.655C10.373,40.758,10.916,41,11.484,41c0.033,0,0.067-0.001,0.1-0.003l4.792-0.24 c0.573-0.029,1.083-0.301,1.431-0.716h3.208c0.44,0,0.844-0.149,1.176-0.392c0.317,0.162,0.623,0.279,0.886,0.337 c0.535,0.145,1.094,0.218,1.662,0.218c1.076,0,2.012-0.262,2.69-0.527c0.286,0.158,0.611,0.256,0.961,0.256h4.233 c0.114,0,0.224-0.015,0.333-0.034c0.109,0.018,0.219,0.034,0.333,0.034h1.571c0.54,0,1.058-0.219,1.435-0.606 c0.048-0.05,0.094-0.102,0.136-0.156c0.378,0.48,0.956,0.762,1.571,0.762h1.624c0.2,0,0.394-0.04,0.582-0.097 c0.188,0.058,0.384,0.097,0.59,0.097h3.594c0.156,0,0.311-0.018,0.463-0.054c0.336-0.08,0.638-0.187,0.916-0.308 c0.18,0.235,0.404,0.438,0.677,0.575c1.007,0.507,2.138,0.774,3.27,0.774c0.937,0,1.594-0.182,1.716-0.219 c0.02-0.006,0.04-0.012,0.059-0.019c1.99-0.664,2.661-2.414,2.744-3.344c0.003-0.038,0.006-0.076,0.007-0.115 c0.043-1.373-0.474-2.415-1.106-3.138l1.53-1.206c0.168-0.125,0.305-0.283,0.427-0.454c0.819-0.068,1.527-0.614,1.76-1.414 C57.102,30.16,56.757,29.245,56.008,28.767z M19.592,33.922c0,0.003-0.002,0.008-0.002,0.011c-0.01,0.082-0.015,0.165-0.015,0.248 v0.825c0,0.025,0,0.05,0.001,0.075c0.003,0.068,0.018,0.123,0.022,0.19l-0.792,0.029l-0.186,1.438l1.238-0.013 c0.149,0.497,0.336,0.947,0.573,1.318h-2.019l0.064-0.415c0.028-0.132,0.042-0.27,0.042-0.41c0-0.883-0.574-1.624-1.367-1.889 l0.422-2.897c0.254-0.069,0.494-0.182,0.7-0.342c0.348,0.269,0.778,0.419,1.225,0.419h0.56c-0.015,0.029-0.031,0.059-0.044,0.088 h-0.848l-0.146,1.32L19.592,33.922z M26.232,26.343c0.093-0.575,0.346-0.923,0.51-1.069c0.109,0.191,0.238,0.601,0.145,1.176 c-0.093,0.575-0.346,0.923-0.51,1.07C26.268,27.328,26.138,26.918,26.232,26.343z M39.175,23.906l0.176,2.216 c-0.109-0.201-0.223-0.398-0.364-0.57c0.148-0.405,0.208-0.819,0.188-1.207V23.906z M39.112,23.107 c-0.072-0.368-0.197-0.7-0.369-0.994l0.302-0.008c0.001,0.04-0.006,0.08-0.003,0.12L39.112,23.107z M50.886,21.855l0.293,0.612 l-0.133,0.799l-2.795,0.133l0.266,1.757l2.822-0.053l0.32,0.719l-0.107,0.932l-2.702,0.08l0.2,1.89h3.168l0.872,0.556h-4.227 l-0.093-0.709c-0.127-0.971-0.939-1.702-1.913-1.736L46.2,21.988L50.886,21.855z M43.591,28.777l1.512,0.025l0.122,0.901 c-0.874-0.352-1.612-0.412-1.764-0.42c-0.036-0.002-0.073-0.003-0.109-0.003h-0.49l-0.473-0.827l-0.312-4.788l0.346-0.813 c0.107-0.252,0.145-0.518,0.145-0.783h0.304L43.591,28.777z M35.205,22.147c0,0,0.082,0.013,0.195,0.037 c0.005,0.288,0.061,0.577,0.192,0.843l0.489,0.997l0.102,1.733c-0.119,0.052-0.242,0.104-0.393,0.144c0,0,0.173,0.039,0.408,0.121 l0.155,2.62l-0.326,0.979c-0.326-0.219-0.712-0.343-1.115-0.343h-1.624c-0.151,0-0.297,0.02-0.439,0.052 c-0.142-0.032-0.288-0.052-0.439-0.052h-0.394c0.377-0.717,0.623-1.514,0.695-2.362c0.139-1.64-0.373-3.183-1.312-4.383v-0.387 H35.205z M26.884,22.163c0.984,0.083,1.847,0.516,2.514,1.15v5.967h-0.769c-0.308,0-0.596,0.076-0.857,0.201 c-0.171-0.052-0.352-0.097-0.552-0.132c0.797-0.425,1.447-1.383,1.641-2.578c0.284-1.751-0.515-3.338-1.787-3.544 c-0.092-0.015-0.184-0.022-0.276-0.022c-1.173,0-2.277,1.195-2.54,2.819c-0.223,1.374,0.227,2.636,1.042,3.22 c-0.48,0.013-0.842,0.042-0.861,0.044c-0.041,0.003-0.08,0.016-0.12,0.022c-0.054-0.071-0.095-0.151-0.159-0.215l-0.559-0.559 l0.533-5.612c0.686-0.483,1.509-0.774,2.395-0.774C26.646,22.148,26.765,22.152,26.884,22.163z M11.617,28.803l1.438-6.816h2.662 l1.118,5.325l2.769-5.325h2.554c-1.011,1.014-1.688,2.369-1.816,3.883c-0.104,1.224,0.158,2.394,0.685,3.409h-1.409l0.519-5.321 l-2.514,5.332c-0.382,0.023-0.735,0.152-1.032,0.362c-0.352-0.377-0.839-0.6-1.363-0.626l-0.948-5.068l-0.74,5.055h-2.231 L11.617,28.803z M9.149,30.484c-0.002,0.008-0.003,0.016-0.005,0.023h-0.03L9.149,30.484z M11.484,39l1.061-6.493h0.776 c0.397,0,0.769-0.118,1.083-0.32l-0.764,5.029h1.214l-0.078,0.537c-0.054,0.37,0.008,0.739,0.152,1.075L11.484,39z M23.544,38.042 c0,0-0.22-0.045-0.507-0.198l0.078-0.974c0.029-0.361-0.041-0.718-0.196-1.037c0.042-0.13,0.071-0.266,0.085-0.406l0.133-1.278 c0.017-0.162,0.014-0.323-0.008-0.481c0.163-0.256,0.269-0.552,0.302-0.871l0.045-0.445c0.175-0.069,0.336-0.16,0.484-0.274 c0.367,0.168,0.753,0.3,1.155,0.394c-0.133,0.028-0.267,0.066-0.4,0.124l-0.213,0.108c0,0-1.97,1.212-0.879,3.289l0.107,0.213 c0,0,0.536,0.473,1.34,0.473c0.241,0,0.507-0.042,0.79-0.153l0.053-0.186l0.08-1.012l-1.278,0.053l-0.027-1.331h1.838l-0.136,3.707 c-0.001,0.024-0.001,0.049-0.001,0.073v0.099c-0.456,0.15-1.022,0.278-1.651,0.278C24.357,38.206,23.954,38.159,23.544,38.042z M29.389,37.935c0.03-0.121,0.058-0.243,0.065-0.37l0.181-3.306c0.007-0.069,0.011-0.14,0.011-0.211 c0-0.396-0.115-0.765-0.313-1.076l0.096-1.075c0.1-0.054,0.198-0.11,0.294-0.169c0.079,0.122,0.169,0.237,0.274,0.34 c0.166,0.162,0.359,0.287,0.566,0.382h-0.417v1.411h1.142v1.343l-1.221,0.015v1.331l1.221,0.025v1.359H29.389z M34.726,33.329 l0.133,4.606h-0.236v-1.331c0-0.441-0.143-0.85-0.386-1.181c0.01-0.089,0.015-0.179,0.013-0.27l-0.027-1.331 c-0.003-0.145-0.021-0.285-0.053-0.421c0.133-0.246,0.204-0.526,0.223-0.819l1.091-0.022c0.11-0.002,0.218-0.022,0.326-0.042 L38,35.539l-0.139-2.9l0.459-0.014l0.467,5.31H38L34.726,33.329z M44.39,37.935h-2.775c0-0.045,0.008-0.09,0.005-0.136 l-0.358-5.264l0.074-0.002c0.168-0.005,0.331-0.034,0.488-0.079h2.817c-0.064,0.483-0.049,0.977,0.056,1.449 c0.014,0.081,0.041,0.158,0.062,0.237c-0.352-1.098-1.461-1.544-1.461-1.544h-1.331l0.32,4.036h1.517 c1.278-0.586,1.065-1.89,1.065-1.89c-0.006-0.161-0.035-0.305-0.069-0.446c0.154,0.48,0.414,0.909,0.716,1.275 c-0.221,0.354-0.332,0.777-0.298,1.214l0.061,0.787C45.03,37.719,44.744,37.851,44.39,37.935z M50.859,38.787 c0,0-0.451,0.135-1.143,0.135c-0.624,0-1.443-0.115-2.303-0.532c0.424-0.472,0.682-0.937,0.823-1.258 c0.326,0.094,0.734,0.177,1.265,0.218c0,0,1.384-0.08,0.666-1.118l-0.24-0.107c0,0-0.759-0.412-1.298-0.682 c0.102-1.346-0.276-2.449-0.518-2.988h3.867l-0.773,0.609c0,0-0.719-0.457-1.81-0.468c0,0-1.73,0.122-0.612,1.134 c0,0,1.358,0.559,2.103,1.092c0,0,1.411,0.639,1.358,2.343C52.244,37.163,52.137,38.361,50.859,38.787z"/></g><g><polygon fill="#acb7d0" points="44.687,42 31.984,42 19.281,42 18.189,40.537 19.281,39.074 31.984,39.074 44.687,39.074 45.778,40.537"/><path fill="#8d6c9f" d="M44.687,43H19.281c-0.315,0-0.613-0.149-0.802-0.402l-1.091-1.463c-0.264-0.354-0.264-0.841,0-1.195 l1.091-1.463c0.189-0.253,0.486-0.402,0.802-0.402h25.406c0.315,0,0.613,0.149,0.802,0.402l1.091,1.463 c0.264,0.354,0.264,0.841,0,1.195l-1.091,1.463C45.3,42.851,45.002,43,44.687,43z M19.782,41h24.403l0.345-0.463l-0.345-0.463 H19.782l-0.345,0.463L19.782,41z"/></g><g><polygon fill="#f9dd8f" points="9.114,30.507 13.321,30.507 14.279,23.958 15.504,30.507 17.048,30.507 20.136,23.958 19.497,30.507 22.745,30.507 21.521,29.283 22.213,21.988 19.604,21.988 16.835,27.312 15.717,21.988 13.055,21.988 11.617,28.803"/><path fill="#f9dd8f" d="M37.761,27.499c-0.24-1.251-1.97-1.597-1.97-1.597c1.491-0.399,1.384-1.491,1.384-1.491v-0.852 c-0.16-1.171-1.97-1.411-1.97-1.411h-3.807v8.493l4.047-0.08c2.21-0.532,2.316-1.917,2.316-1.917 C37.841,28.51,37.761,27.499,37.761,27.499z M33.288,23.319l1.309,0.08c0,0,0.661,0.346,0.581,0.905c0,0,0.055,0.799-0.704,0.985 h-1.186V23.319z M34.939,29.256h-1.651v-2.369l1.518,0.106c0,0,0.852,0.373,0.852,1.078 C35.658,28.071,35.738,28.936,34.939,29.256z"/><polygon fill="#f9dd8f" points="38.054,23.505 37.388,22.148 40.583,22.068 40.05,23.319 40.423,29.043 41.275,30.534 37.796,30.64 38.373,28.91"/><polygon fill="#f9dd8f" points="41.701,30.454 41.036,22.068 42.873,22.068 43.591,28.777 46.786,28.83 46.999,30.454"/><polygon fill="#f9dd8f" points="47.345,30.454 46.2,21.988 50.886,21.855 51.179,22.467 51.046,23.266 48.25,23.399 48.517,25.156 51.339,25.103 51.658,25.822 51.552,26.753 48.849,26.833 49.049,28.723 52.217,28.723 54.933,30.454"/><polygon fill="#f9dd8f" points="12.575,32.318 11.058,31.013 15.131,31.013 14.412,32.131 13.64,37.216 16.516,37.216 16.276,38.76 11.484,39"/><polygon fill="#f9dd8f" points="16.755,38.042 17.74,31.279 21.574,31.279 21.441,32.595 19.165,32.595 19.018,33.915 21.148,33.942 21.015,35.22 18.805,35.299 18.619,36.737 21.121,36.71 21.015,38.042"/><path fill="#f9dd8f" d="M27.325,32.983c0,0-1.358-0.936-2.609-0.388l-0.213,0.108c0,0-1.97,1.212-0.879,3.289l0.106,0.213 c0,0,0.905,0.799,2.13,0.319l0.053-0.186l0.08-1.012l-1.278,0.053l-0.027-1.331h2.955l-0.186,3.408c0,0-1.864,1.171-3.914,0.586 c0,0-1.869-0.312-1.97-3.035v-0.825c0,0,0.266-2.13,3.035-2.902c0,0,2.183-0.186,2.849,0.213L27.325,32.983z"/><polygon fill="#f9dd8f" points="28.39,37.829 28.629,31.279 32.41,31.279 32.41,32.451 30.147,32.451 30.147,33.862 32.223,33.862 32.25,35.193 30.067,35.22 30.067,36.551 32.623,36.604 32.623,37.935 28.39,37.935"/><polygon fill="#f9dd8f" points="33.288,37.935 33.288,31.279 34.912,31.279 38,35.539 37.796,31.279 39.172,31.279 39.625,37.935 38,37.935 34.726,33.329 34.859,37.935"/><path fill="#f9dd8f" d="M46.2,33.09c-0.905-1.704-2.849-1.81-2.849-1.81H40.21l0.586,6.656h3.594 c1.677-0.399,2.077-1.757,2.077-1.757C47.026,34.554,46.2,33.09,46.2,33.09z M43.804,36.631h-1.517l-0.319-4.036h1.331 c0,0,1.517,0.601,1.571,2.145C44.869,34.74,45.082,36.045,43.804,36.631z"/><path fill="#f9dd8f" d="M47.345,38.361l-0.133-1.731c0,0,0.532,0.586,2.29,0.719c0,0,1.384-0.08,0.666-1.118l-0.24-0.106 c0,0-1.518-0.825-1.784-0.905c0,0-1.369-0.852-1.483-1.704c0,0-0.407-1.651,1.03-2.077l0.8-0.16h4.978l-2.263,1.784 c0,0-0.719-0.457-1.81-0.468c0,0-1.731,0.122-0.612,1.134c0,0,1.358,0.559,2.103,1.092c0,0,1.411,0.639,1.358,2.343 c0,0-0.106,1.198-1.384,1.624C50.859,38.787,49.186,39.288,47.345,38.361z"/><path fill="#f9dd8f" d="M26.884,22.163c-2.315-0.196-4.352,1.54-4.55,3.877c-0.198,2.337,1.519,4.39,3.833,4.586 c2.315,0.196,4.352-1.54,4.55-3.877C30.915,24.412,29.199,22.359,26.884,22.163z M28.861,26.77 c-0.284,1.751-1.545,3.003-2.817,2.797c-1.271-0.207-2.071-1.793-1.787-3.544c0.284-1.751,1.545-3.003,2.817-2.796 C28.345,23.432,29.145,25.019,28.861,26.77z"/></g><g><path fill="#8d6c9f" d="M24.767,14.228c-0.324,0-0.642-0.157-0.834-0.447l-1.104-1.667 c-0.305-0.461-0.179-1.081,0.281-1.387c0.459-0.305,1.081-0.179,1.386,0.281l1.104,1.667c0.305,0.461,0.179,1.081-0.281,1.387 C25.148,14.174,24.957,14.228,24.767,14.228z"/><path fill="#8d6c9f" d="M29.422,12.411c-0.475,0-0.896-0.339-0.983-0.823l-0.354-1.969 c-0.098-0.543,0.264-1.063,0.808-1.161c0.542-0.099,1.063,0.263,1.161,0.808l0.354,1.969c0.098,0.543-0.264,1.063-0.808,1.161 C29.541,12.406,29.481,12.411,29.422,12.411z"/><path fill="#8d6c9f" d="M34.486,12.402c-0.058,0-0.116-0.005-0.175-0.016c-0.544-0.096-0.907-0.614-0.811-1.158 l0.348-1.97c0.097-0.544,0.618-0.908,1.159-0.811c0.544,0.096,0.907,0.614,0.811,1.158l-0.348,1.97 C35.384,12.062,34.962,12.402,34.486,12.402z"/><path fill="#8d6c9f" d="M39.149,14.203c-0.188,0-0.378-0.053-0.548-0.164c-0.461-0.303-0.59-0.923-0.287-1.385 l1.097-1.672c0.303-0.461,0.922-0.59,1.385-0.287c0.461,0.303,0.59,0.923,0.287,1.385l-1.097,1.672 C39.794,14.044,39.475,14.203,39.149,14.203z"/></g><g><path fill="#8d6c9f" d="M50.413,47.736c-0.167,0-0.335-0.041-0.491-0.129l-1.742-0.983 c-0.481-0.271-0.65-0.882-0.379-1.362c0.271-0.481,0.882-0.651,1.362-0.38l1.742,0.983c0.481,0.271,0.65,0.882,0.379,1.362 C51.101,47.554,50.762,47.736,50.413,47.736z"/><path fill="#8d6c9f" d="M46.944,51.969c-0.276,0-0.55-0.113-0.748-0.335l-1.33-1.494c-0.367-0.413-0.33-1.045,0.083-1.412 c0.413-0.368,1.044-0.329,1.412,0.082l1.33,1.494c0.367,0.413,0.33,1.045-0.083,1.412C47.418,51.886,47.181,51.969,46.944,51.969 z"/><path fill="#8d6c9f" d="M42.434,54.981c-0.37,0-0.726-0.206-0.899-0.561l-0.879-1.797 c-0.243-0.496-0.037-1.095,0.459-1.338s1.095-0.037,1.338,0.459l0.879,1.797c0.243,0.496,0.037,1.095-0.459,1.338 C42.73,54.949,42.581,54.981,42.434,54.981z"/><path fill="#8d6c9f" d="M37.336,56.755c-0.459,0-0.873-0.317-0.976-0.784l-0.432-1.953 c-0.119-0.539,0.222-1.073,0.761-1.192c0.539-0.118,1.073,0.221,1.192,0.761l0.432,1.953c0.119,0.539-0.222,1.073-0.761,1.192 C37.48,56.747,37.408,56.755,37.336,56.755z"/><path fill="#8d6c9f" d="M31.99,57.333L31.99,57.333c-0.553,0-1-0.448-1-1.001l0.001-2c0-0.552,0.448-0.999,1-0.999h0 c0.552,0,1,0.448,1,1.001l-0.001,2C32.99,56.886,32.542,57.333,31.99,57.333z"/><path fill="#8d6c9f" d="M26.644,56.75c-0.072,0-0.145-0.008-0.218-0.023c-0.539-0.12-0.879-0.654-0.759-1.193l0.434-1.952 c0.12-0.539,0.656-0.877,1.193-0.76c0.539,0.12,0.879,0.654,0.759,1.193l-0.434,1.952C27.516,56.433,27.103,56.75,26.644,56.75z"/><path fill="#8d6c9f" d="M21.549,54.97c-0.147,0-0.298-0.032-0.439-0.103c-0.496-0.243-0.701-0.842-0.458-1.338 l0.881-1.796c0.243-0.496,0.841-0.704,1.338-0.457c0.496,0.243,0.701,0.842,0.458,1.338l-0.881,1.796 C22.274,54.765,21.918,54.97,21.549,54.97z"/><path fill="#8d6c9f" d="M17.042,51.952c-0.237,0-0.475-0.084-0.666-0.254c-0.412-0.368-0.448-1-0.08-1.412l1.332-1.492 c0.367-0.411,0.999-0.448,1.412-0.08c0.412,0.368,0.448,1,0.08,1.412l-1.332,1.492C17.591,51.839,17.317,51.952,17.042,51.952z"/><path fill="#8d6c9f" d="M13.579,47.714c-0.35,0-0.689-0.184-0.873-0.51c-0.271-0.481-0.1-1.091,0.381-1.362l1.744-0.98 c0.482-0.271,1.091-0.1,1.362,0.382s0.1,1.091-0.381,1.362l-1.744,0.98C13.913,47.673,13.745,47.714,13.579,47.714z"/></g></svg>